<svg width="136" height="36" viewBox="0 0 136 36" fill="none" xmlns="http://www.w3.org/2000/svg">
<path d="M50.682 13.1772C50.4236 12.8348 50.0701 12.5851 49.6213 12.4281C49.1861 12.2569 48.7713 12.1713 48.377 12.1713C48.1458 12.1713 47.9078 12.1999 47.663 12.2569C47.4183 12.314 47.1871 12.4067 46.9695 12.5352C46.7519 12.6493 46.5751 12.8063 46.4391 13.006C46.3031 13.2058 46.2351 13.4483 46.2351 13.7337C46.2351 14.1903 46.3983 14.5399 46.7247 14.7824C47.0511 15.025 47.459 15.2319 47.9486 15.4031C48.4518 15.5743 48.9889 15.7456 49.5601 15.9168C50.1312 16.088 50.6616 16.3306 51.1512 16.6445C51.6543 16.9584 52.0691 17.3793 52.3955 17.9072C52.7219 18.4351 52.885 19.1414 52.885 20.0261C52.885 20.8679 52.7355 21.6027 52.4363 22.2305C52.1371 22.8583 51.7291 23.3791 51.2124 23.7929C50.7092 24.2067 50.1176 24.5135 49.4377 24.7132C48.7713 24.913 48.0642 25.0129 47.3163 25.0129C46.3779 25.0129 45.5076 24.8631 44.7053 24.5634C43.9029 24.2638 43.155 23.7787 42.4614 23.108L44.7257 20.4969C45.052 20.9535 45.46 21.3102 45.9496 21.5671C46.4527 21.8096 46.9695 21.9309 47.4998 21.9309C47.7582 21.9309 48.0166 21.9024 48.275 21.8453C48.547 21.774 48.7849 21.6741 48.9889 21.5457C49.2065 21.4172 49.3765 21.2532 49.4989 21.0534C49.6349 20.8536 49.7029 20.6182 49.7029 20.3471C49.7029 19.8905 49.5329 19.5338 49.1929 19.277C48.8665 19.0059 48.4518 18.7776 47.9486 18.5921C47.4454 18.4066 46.9015 18.2211 46.3167 18.0356C45.732 17.8501 45.188 17.6004 44.6849 17.2865C44.1817 16.9726 43.7601 16.5589 43.4202 16.0452C43.0938 15.5315 42.9306 14.8538 42.9306 14.0119C42.9306 13.1986 43.0802 12.4852 43.3794 11.8717C43.6921 11.2581 44.1001 10.7445 44.6033 10.3307C45.12 9.91691 45.7116 9.61014 46.3779 9.41038C47.0443 9.19636 47.731 9.08934 48.4382 9.08934C49.2541 9.08934 50.0429 9.21063 50.8044 9.45319C51.5659 9.69575 52.2527 10.1024 52.8646 10.6731L50.682 13.1772Z" fill="url(#paint0_linear_27_4)"/>
<path d="M54.501 19.4268C54.501 18.5992 54.6438 17.8501 54.9293 17.1795C55.2149 16.5089 55.6025 15.9382 56.0921 15.4673C56.5952 14.9822 57.18 14.6112 57.8463 14.3544C58.5263 14.0976 59.247 13.9691 60.0086 13.9691C60.7701 13.9691 61.4841 14.0976 62.1504 14.3544C62.8303 14.6112 63.4151 14.9822 63.9047 15.4673C64.4078 15.9382 64.8022 16.5089 65.0878 17.1795C65.3734 17.8501 65.5161 18.5992 65.5161 19.4268C65.5161 20.2544 65.3734 21.0035 65.0878 21.6741C64.8022 22.3447 64.4078 22.9226 63.9047 23.4077C63.4151 23.8785 62.8303 24.2424 62.1504 24.4992C61.4841 24.756 60.7701 24.8845 60.0086 24.8845C59.247 24.8845 58.5263 24.756 57.8463 24.4992C57.18 24.2424 56.5952 23.8785 56.0921 23.4077C55.6025 22.9226 55.2149 22.3447 54.9293 21.6741C54.6438 21.0035 54.501 20.2544 54.501 19.4268ZM57.5607 19.4268C57.5607 20.2116 57.7715 20.8465 58.1931 21.3316C58.6283 21.8168 59.2334 22.0593 60.0086 22.0593C60.7837 22.0593 61.3821 21.8168 61.8036 21.3316C62.2388 20.8465 62.4564 20.2116 62.4564 19.4268C62.4564 18.642 62.2388 18.0071 61.8036 17.522C61.3821 17.0368 60.7837 16.7943 60.0086 16.7943C59.2334 16.7943 58.6283 17.0368 58.1931 17.522C57.7715 18.0071 57.5607 18.642 57.5607 19.4268Z" fill="url(#paint1_linear_27_4)"/>
<path d="M67.3592 8.44727H70.4189V24.6276H67.3592V8.44727Z" fill="url(#paint2_linear_27_4)"/>
<path d="M72.658 14.226H75.7178V24.6276H72.658V14.226ZM72.4132 10.9514C72.4132 10.4377 72.5832 10.0025 72.9232 9.64581C73.2767 9.27483 73.6983 9.08934 74.1879 9.08934C74.6774 9.08934 75.0922 9.27483 75.4322 9.64581C75.7858 10.0025 75.9625 10.4377 75.9625 10.9514C75.9625 11.465 75.7858 11.9074 75.4322 12.2783C75.0922 12.635 74.6774 12.8134 74.1879 12.8134C73.6983 12.8134 73.2767 12.635 72.9232 12.2783C72.5832 11.9074 72.4132 11.465 72.4132 10.9514Z" fill="url(#paint3_linear_27_4)"/>
<path d="M88.3192 24.6276H85.5042V23.2579H85.4634C85.3411 23.4434 85.1779 23.636 84.9739 23.8357C84.7835 24.0212 84.5523 24.1924 84.2803 24.3494C84.022 24.5063 83.7296 24.6348 83.4032 24.7346C83.0904 24.8345 82.7641 24.8845 82.4241 24.8845C81.6897 24.8845 81.0234 24.756 80.425 24.4992C79.8267 24.2281 79.3099 23.8571 78.8747 23.3863C78.4532 22.9012 78.1268 22.3304 77.8956 21.6741C77.6644 21.0177 77.5488 20.2972 77.5488 19.5124C77.5488 18.7847 77.6508 18.0927 77.8548 17.4364C78.0724 16.7657 78.3716 16.1736 78.7524 15.6599C79.1467 15.1463 79.6227 14.7396 80.1802 14.44C80.7378 14.1261 81.3702 13.9691 82.0773 13.9691C82.7165 13.9691 83.308 14.0761 83.852 14.2902C84.4095 14.4899 84.8651 14.8395 85.2187 15.3389H85.2595V8.44727H88.3192V24.6276ZM85.5042 19.4268C85.5042 18.642 85.2867 18.0071 84.8515 17.522C84.4299 17.0368 83.8316 16.7943 83.0564 16.7943C82.2813 16.7943 81.6761 17.0368 81.241 17.522C80.8194 18.0071 80.6086 18.642 80.6086 19.4268C80.6086 20.2116 80.8194 20.8465 81.241 21.3316C81.6761 21.8168 82.2813 22.0593 83.0564 22.0593C83.8316 22.0593 84.4299 21.8168 84.8515 21.3316C85.2867 20.8465 85.5042 20.2116 85.5042 19.4268Z" fill="url(#paint4_linear_27_4)"/>
<path d="M90.8055 14.226H93.8652V24.6276H90.8055V14.226ZM90.5607 10.9514C90.5607 10.4377 90.7307 10.0025 91.0706 9.64581C91.4242 9.27483 91.8458 9.08934 92.3353 9.08934C92.8249 9.08934 93.2397 9.27483 93.5796 9.64581C93.9332 10.0025 94.11 10.4377 94.11 10.9514C94.11 11.465 93.9332 11.9074 93.5796 12.2783C93.2397 12.635 92.8249 12.8134 92.3353 12.8134C91.8458 12.8134 91.4242 12.635 91.0706 12.2783C90.7307 11.9074 90.5607 11.465 90.5607 10.9514Z" fill="url(#paint5_linear_27_4)"/>
<path d="M102.815 16.7943H100.123V20.2615C100.123 20.5469 100.136 20.8108 100.164 21.0534C100.191 21.2817 100.252 21.4814 100.347 21.6527C100.442 21.8239 100.585 21.9594 100.776 22.0593C100.98 22.1449 101.245 22.1877 101.571 22.1877C101.734 22.1877 101.945 22.1735 102.203 22.1449C102.475 22.1021 102.679 22.0165 102.815 21.8881V24.5634C102.475 24.6918 102.122 24.7775 101.755 24.8203C101.387 24.8631 101.027 24.8845 100.674 24.8845C100.157 24.8845 99.6808 24.8274 99.2456 24.7132C98.8105 24.5991 98.4297 24.4207 98.1033 24.1782C97.777 23.9213 97.5186 23.5932 97.3282 23.1937C97.1514 22.7941 97.063 22.309 97.063 21.7383V16.7943H95.1048V14.226H97.063V11.144H100.123V14.226H102.815V16.7943Z" fill="url(#paint6_linear_27_4)"/>
<path d="M110.082 26.3184C109.878 26.8749 109.681 27.3672 109.49 27.7952C109.3 28.2233 109.055 28.58 108.756 28.8653C108.47 29.165 108.103 29.3861 107.654 29.5288C107.206 29.6858 106.614 29.7643 105.88 29.7643C105.091 29.7643 104.329 29.6358 103.595 29.379L104.003 26.7465C104.465 26.9605 104.941 27.0675 105.431 27.0675C105.771 27.0675 106.05 27.0247 106.267 26.9391C106.485 26.8678 106.662 26.7536 106.798 26.5967C106.947 26.454 107.07 26.2756 107.165 26.0616C107.26 25.8476 107.362 25.5979 107.471 25.3125L107.695 24.7132L103.35 14.226H106.655L109.205 21.0962H109.246L111.428 14.226H114.57L110.082 26.3184Z" fill="url(#paint7_linear_27_4)"/>
<path d="M113.894 22.787C113.894 22.5159 113.941 22.2591 114.036 22.0165C114.132 21.774 114.261 21.5671 114.424 21.3958C114.601 21.2103 114.805 21.0677 115.036 20.9678C115.267 20.8679 115.512 20.818 115.77 20.818C116.029 20.818 116.273 20.8679 116.505 20.9678C116.736 21.0677 116.933 21.2103 117.096 21.3958C117.273 21.5671 117.409 21.774 117.504 22.0165C117.599 22.2591 117.647 22.5159 117.647 22.787C117.647 23.0581 117.599 23.3149 117.504 23.5575C117.409 23.8001 117.273 24.0141 117.096 24.1996C116.933 24.3708 116.736 24.5063 116.505 24.6062C116.273 24.7061 116.029 24.756 115.77 24.756C115.512 24.756 115.267 24.7061 115.036 24.6062C114.805 24.5063 114.601 24.3708 114.424 24.1996C114.261 24.0141 114.132 23.8001 114.036 23.5575C113.941 23.3149 113.894 23.0581 113.894 22.787Z" fill="url(#paint8_linear_27_4)"/>
<path d="M119.909 14.226H122.969V24.6276H119.909V14.226ZM119.664 10.9514C119.664 10.4377 119.834 10.0025 120.174 9.64581C120.528 9.27483 120.949 9.08934 121.439 9.08934C121.929 9.08934 122.343 9.27483 122.683 9.64581C123.037 10.0025 123.214 10.4377 123.214 10.9514C123.214 11.465 123.037 11.9074 122.683 12.2783C122.343 12.635 121.929 12.8134 121.439 12.8134C120.949 12.8134 120.528 12.635 120.174 12.2783C119.834 11.9074 119.664 11.465 119.664 10.9514Z" fill="url(#paint9_linear_27_4)"/>
<path d="M124.8 19.4268C124.8 18.5992 124.943 17.8501 125.228 17.1795C125.514 16.5089 125.901 15.9382 126.391 15.4673C126.894 14.9822 127.479 14.6112 128.145 14.3544C128.825 14.0976 129.546 13.9691 130.308 13.9691C131.069 13.9691 131.783 14.0976 132.449 14.3544C133.129 14.6112 133.714 14.9822 134.204 15.4673C134.707 15.9382 135.101 16.5089 135.387 17.1795C135.672 17.8501 135.815 18.5992 135.815 19.4268C135.815 20.2544 135.672 21.0035 135.387 21.6741C135.101 22.3447 134.707 22.9226 134.204 23.4077C133.714 23.8785 133.129 24.2424 132.449 24.4992C131.783 24.756 131.069 24.8845 130.308 24.8845C129.546 24.8845 128.825 24.756 128.145 24.4992C127.479 24.2424 126.894 23.8785 126.391 23.4077C125.901 22.9226 125.514 22.3447 125.228 21.6741C124.943 21.0035 124.8 20.2544 124.8 19.4268ZM127.86 19.4268C127.86 20.2116 128.071 20.8465 128.492 21.3316C128.927 21.8168 129.532 22.0593 130.308 22.0593C131.083 22.0593 131.681 21.8168 132.103 21.3316C132.538 20.8465 132.755 20.2116 132.755 19.4268C132.755 18.642 132.538 18.0071 132.103 17.522C131.681 17.0368 131.083 16.7943 130.308 16.7943C129.532 16.7943 128.927 17.0368 128.492 17.522C128.071 18.0071 127.86 18.642 127.86 19.4268Z" fill="url(#paint10_linear_27_4)"/>
<path d="M18.4856 35.2923L20.4607 25.6485L35.8888 18.8154L18.4856 35.2923Z" fill="#7358F8"/>
<path d="M0.35083 19.6409L20.4605 25.6485L18.4856 35.293L0.35083 19.6409Z" fill="#BA51F8"/>
<path d="M0.35083 19.6412L18.4732 0.751221L20.4604 25.6494L0.35083 19.6412Z" fill="url(#paint11_linear_27_4)"/>
<path d="M0.35083 19.6412L18.4732 0.751221L20.4604 25.6494L0.35083 19.6412Z" fill="url(#paint12_linear_27_4)"/>
<path d="M20.4605 25.6494L18.4734 0.750977L35.8895 18.8156L20.4605 25.6494Z" fill="url(#paint13_linear_27_4)"/>
<path d="M20.4605 25.6494L18.4734 0.750977L35.8895 18.8156L20.4605 25.6494Z" fill="url(#paint14_linear_27_4)"/>
<defs>
<linearGradient id="paint0_linear_27_4" x1="129.981" y1="28.279" x2="89.1121" y2="14.729" gradientUnits="userSpaceOnUse">
<stop offset="0.394064" stop-color="#D64EF7"/>
<stop offset="0.447281" stop-color="white"/>
</linearGradient>
<linearGradient id="paint1_linear_27_4" x1="129.981" y1="28.279" x2="89.1121" y2="14.729" gradientUnits="userSpaceOnUse">
<stop offset="0.394064" stop-color="#D64EF7"/>
<stop offset="0.447281" stop-color="white"/>
</linearGradient>
<linearGradient id="paint2_linear_27_4" x1="129.981" y1="28.279" x2="89.1121" y2="14.729" gradientUnits="userSpaceOnUse">
<stop offset="0.394064" stop-color="#D64EF7"/>
<stop offset="0.447281" stop-color="white"/>
</linearGradient>
<linearGradient id="paint3_linear_27_4" x1="129.981" y1="28.279" x2="89.1121" y2="14.729" gradientUnits="userSpaceOnUse">
<stop offset="0.394064" stop-color="#D64EF7"/>
<stop offset="0.447281" stop-color="white"/>
</linearGradient>
<linearGradient id="paint4_linear_27_4" x1="129.981" y1="28.279" x2="89.1121" y2="14.729" gradientUnits="userSpaceOnUse">
<stop offset="0.394064" stop-color="#D64EF7"/>
<stop offset="0.447281" stop-color="white"/>
</linearGradient>
<linearGradient id="paint5_linear_27_4" x1="129.981" y1="28.279" x2="89.1121" y2="14.729" gradientUnits="userSpaceOnUse">
<stop offset="0.394064" stop-color="#D64EF7"/>
<stop offset="0.447281" stop-color="white"/>
</linearGradient>
<linearGradient id="paint6_linear_27_4" x1="129.981" y1="28.279" x2="89.1121" y2="14.729" gradientUnits="userSpaceOnUse">
<stop offset="0.394064" stop-color="#D64EF7"/>
<stop offset="0.447281" stop-color="white"/>
</linearGradient>
<linearGradient id="paint7_linear_27_4" x1="129.981" y1="28.279" x2="89.1121" y2="14.729" gradientUnits="userSpaceOnUse">
<stop offset="0.394064" stop-color="#D64EF7"/>
<stop offset="0.447281" stop-color="white"/>
</linearGradient>
<linearGradient id="paint8_linear_27_4" x1="129.981" y1="28.279" x2="89.1121" y2="14.729" gradientUnits="userSpaceOnUse">
<stop offset="0.394064" stop-color="#D64EF7"/>
<stop offset="0.447281" stop-color="white"/>
</linearGradient>
<linearGradient id="paint9_linear_27_4" x1="129.981" y1="28.279" x2="89.1121" y2="14.729" gradientUnits="userSpaceOnUse">
<stop offset="0.394064" stop-color="#D64EF7"/>
<stop offset="0.447281" stop-color="white"/>
</linearGradient>
<linearGradient id="paint10_linear_27_4" x1="129.981" y1="28.279" x2="89.1121" y2="14.729" gradientUnits="userSpaceOnUse">
<stop offset="0.394064" stop-color="#D64EF7"/>
<stop offset="0.447281" stop-color="white"/>
</linearGradient>
<linearGradient id="paint11_linear_27_4" x1="10.4056" y1="0.751221" x2="10.4056" y2="25.6494" gradientUnits="userSpaceOnUse">
<stop stop-color="#FBD412"/>
<stop offset="0.260417" stop-color="#E8C410"/>
<stop offset="1" stop-color="#B0950C"/>
</linearGradient>
<linearGradient id="paint12_linear_27_4" x1="1.57342" y1="13.2003" x2="19.2799" y2="13.2003" gradientUnits="userSpaceOnUse">
<stop stop-color="#4F5BF7"/>
<stop offset="0.552083" stop-color="#9A54F7"/>
<stop offset="1" stop-color="#D64EF7"/>
</linearGradient>
<linearGradient id="paint13_linear_27_4" x1="27.1814" y1="0.750977" x2="27.1814" y2="25.6494" gradientUnits="userSpaceOnUse">
<stop stop-color="#F8DB4A"/>
<stop offset="1" stop-color="white"/>
</linearGradient>
<linearGradient id="paint14_linear_27_4" x1="19.5322" y1="13.2002" x2="34.8672" y2="13.2002" gradientUnits="userSpaceOnUse">
<stop stop-color="#B6BBFB"/>
<stop offset="0.552083" stop-color="#CFB5F2"/>
<stop offset="1" stop-color="#E4A6F3"/>
</linearGradient>
</defs>
</svg>
